<?xml version="1.0" encoding="utf-8"?>
<!-- Generator: Adobe Illustrator 24.1.3, SVG Export Plug-In . SVG Version: 6.00 Build 0)  -->
<svg version="1.1" id="MDN_Web_Docs" xmlns="http://www.w3.org/2000/svg" xmlns:xlink="http://www.w3.org/1999/xlink" x="0px"
	 y="0px" viewBox="0 0 218.8 48" style="enable-background:new 0 0 218.8 48;" xml:space="preserve">
<path id="path8" d="M49.6,30.8h59.9V48H49.6L49.6,30.8z M106.9,43.1c-0.1,0-0.2,0-0.3,0c-0.3,0-0.5-0.2-0.5-0.6v-3.3
	c0-1.7-1.4-2.5-3-2.5c-1.1,0-2.2,0.2-3.2,0.7l-0.3,1.7l1.7,0.2l0.2-0.8c0.4-0.2,0.8-0.2,1.1-0.2c1.2,0,1.2,0.9,1.2,1.7v0.2
	c-0.4,0-0.8-0.1-1.2-0.1c-1.7,0-3.5,0.4-3.5,2.3c0,1.6,1.2,2.1,2.3,2.1c1,0,2-0.6,2.4-1.5c0,0.9,0.8,1.6,1.6,1.5
	c0.5,0,0.9-0.1,1.4-0.3L106.9,43.1z M102.3,43.1c-0.5,0.1-0.9-0.4-0.9-0.9c0-0.8,0.7-1,1.4-1c0.4,0,0.7,0,1.1,0.1
	C103.8,42.5,103,43.1,102.3,43.1L102.3,43.1z M97.3,33L94,44.4h2.1L99.4,33L97.3,33z M92.9,33l-3.2,11.4h2.1L95,33H92.9z M86,39.6
	h2.2v-2.7H86L86,39.6z M86,44.4h2.2v-2.7H86L86,44.4z M82.4,42.8H80l4.2-4.7L84,36.9h-6.6l-0.3,2.6l1.5,0.2l0.3-1.2h2.3l-4.1,4.7
	l0.2,1.1H84l0.5-2.6l-1.7-0.2L82.4,42.8z M72,36.8c-2.7,0-4,1.8-4,4c0,2.4,1.6,3.8,3.9,3.8c2.4,0,4.1-1.5,4.1-3.9
	C76,38.6,74.7,36.8,72,36.8L72,36.8z M72,42.9c-1.2,0-1.8-1-1.8-2.3c0-1.4,0.7-2.2,1.8-2.2c1,0,1.8,0.7,1.8,2.2
	C73.8,42.1,73.1,42.9,72,42.9L72,42.9z M66.1,39.4c0-1.8-1.2-2.6-2.6-2.6c-1.1,0-2.1,0.6-2.4,1.6c-0.4-1.1-1.4-1.6-2.4-1.6
	c-0.9,0-1.8,0.5-2.3,1.3v-1.1h-3.1v1.6h1v4.2h-1v1.6h4.6v-1.6h-1.4v-2.6c0-1,0.4-1.8,1.4-1.8c0.8,0,1.3,0.5,1.3,1.8v4.2h3.1v-1.6h-1
	v-2.6c0-1,0.4-1.8,1.4-1.8c0.8,0,1.3,0.5,1.3,1.8v4.2h3.1v-1.6h-1L66.1,39.4z M144.9,17h-6.3c0.2-1.9,1.2-3.6,3.3-3.6
	C144.1,13.4,145,15.3,144.9,17L144.9,17z M218.8,0v29.1H49.6V0H218.8z M71.6,6.9h-3.8L61.4,20h-0.1L54.8,6.9h-3.8v1.7h2.2V22H51v1.6
	h5.9V22h-2V11.2H55l5.8,11.6h1l5.6-11.5h0.1V22h-2v1.6h5.9V22h-2.1V8.5h2.2L71.6,6.9z M81.6,23.6c5.3,0,8.5-3.5,8.5-8.4
	c0-4.8-3.1-8.4-8.6-8.4H74v1.6h2.1V22H74v1.6H81.6z M108.6,6.9h-6.4v1.7h2.5v11.3h-0.1L95.1,6.9h-3.6v1.7h2.2V22h-1.9v1.6h6.4V22
	h-2.7V10.4h0.1l9.7,13.2h1.2V8.5h2.1L108.6,6.9z M135.3,12.2h-5.2v1.5h1.8l-1.9,7.2H130l-3.6-8.7h-1.2l-3.4,8.7h-0.1l-2.1-7.2h1.9
	v-1.5h-5.4v1.5h1.5l3.3,10h1.4l3.4-8.8h0.1l3.5,8.8h1.4l3.1-10h1.6L135.3,12.2z M142,23.9c2.8,0,4.5-1.6,4.8-3.6l-1.5-0.3
	c-0.4,1.4-1.4,2.3-3.2,2.3c-2.3,0-3.5-1.5-3.6-4h8.1c0.1-0.4,0.2-0.9,0.2-1.4c0-2.7-1.7-5-4.9-5c-3.2,0-5.3,2.6-5.3,6.1
	C136.6,21.8,138.8,23.9,142,23.9L142,23.9z M155.5,23.9c3.7,0,5.1-3.3,5.1-6.3c0-3.6-2.1-5.7-4.9-5.7c-2.2,0-3.4,1.2-4.1,2.6V5.9
	H148v1.5h1.7v12.9c0,1.1-0.1,2.2-0.3,3.4h1.8c0-0.1,0.2-1.8,0.2-1.9C152.2,23.1,153.7,23.9,155.5,23.9L155.5,23.9z M181.7,22.2h-2
	V5.9h-4.6v1.5h2.8V14c-0.7-1.3-2.1-2.1-3.8-2.1c-3.7,0-5.2,3.2-5.2,6.3c0,3.6,2,5.7,4.9,5.7c2.1,0,3.4-1.2,4.1-2.6v2.3h3.8
	L181.7,22.2z M188.6,23.9c3.5,0,5.8-2.5,5.7-6c0-3.3-1.9-6-5.6-6S183,14.6,183,18C183,21.5,185.1,23.9,188.6,23.9L188.6,23.9z
	 M201.6,23.9c3.2,0,4.5-2.1,4.9-4.1l-1.5-0.3c-0.3,1.9-1.3,2.9-3.1,2.9c-2.3,0-3.5-1.6-3.5-4.4c0-2.5,1-4.5,3.4-4.5
	c0.9,0,1.7,0.2,2.4,0.6l0.4,1.9l1.5-0.2l-0.4-2.8c-1.2-0.9-2.4-1.2-3.9-1.2c-3.6,0-5.4,3-5.4,6.1C196.3,21.8,198.4,23.9,201.6,23.9
	L201.6,23.9z M212.7,23.9c2.8,0,4.9-1.3,4.8-3.6c0-4.6-7.1-2.2-7.1-5.2c0-1.2,1-1.7,2.5-1.7c0.8,0,1.6,0.2,2.4,0.6l0.3,1.9l1.5-0.2
	l-0.3-2.7c-1.2-0.7-2.6-1.1-4-1.1c-2.1,0-4.3,0.9-4.3,3.3c0,4.5,7.2,2.1,7.2,5.2c0,1.3-1.5,1.9-3.1,1.9c-0.9,0-1.8-0.2-2.6-0.6
	l0.1-1.5l-1.4-0.2l-0.4,2.6C209.3,23.4,211.1,23.9,212.7,23.9L212.7,23.9z M158.7,17.8c0,2.4-1.1,4.6-3.6,4.6
	c-1.9,0-3.5-1.5-3.5-3.5v-1.7c0.1-1.7,1.4-3.7,3.6-3.7C157.1,13.5,158.7,14.9,158.7,17.8L158.7,17.8z M177.9,16.7v1.8
	c-0.1,1.7-1.6,3.8-3.6,3.8c-2,0-3.5-1.5-3.5-4.3c0-2.4,1.1-4.6,3.7-4.6C176.3,13.4,177.8,14.9,177.9,16.7L177.9,16.7z M192.5,17.9
	c0,2.6-1.3,4.5-3.8,4.5c-2.5,0-3.7-2-3.7-4.5c0-2.6,1.3-4.4,3.7-4.4C191.1,13.5,192.5,15.2,192.5,17.9L192.5,17.9z M88.1,15.3
	c0,4.2-2.3,6.8-6.6,6.8H78V8.5h3.5C85.7,8.5,88.1,11.2,88.1,15.3L88.1,15.3z M0,0h48v48H0V0z M41.9,22c0-0.7-0.1-1.4-0.2-2.2
	c0-0.4-0.2-0.7-0.4-1c-0.3-0.3-0.6-0.6-1-0.7c-0.8-0.3-1.6-0.7-2.4-1c-1.2-0.4-2.3-0.9-3.3-1.5c-0.7-0.4-1.2-1.1-1.3-2
	c-0.1-0.9-0.7-1.8-1.5-2.2c-0.9-0.5-2-0.6-3-0.4c-0.7,0.2-1.5,0.2-2.2,0l-1.1-0.3l-0.3-0.1l-0.9-0.3c-1.6-0.5-2.2-0.7-4.8-0.3
	c-2.7,0.6-5.1,2-7.1,3.9l-6.4,6.8h5.7l-3.5,3.7h6l-3.5,3.7h4.8l-1.5,4.1c5.9,6.1,12.3,7.3,12.3,7.3c0-1.7,0.4-8.2,0.8-9.3
	c0.2-0.6,0.4-1.1,0.8-1.5c0.8-1,2.1-1.6,3.4-1.5c1.3,0,2.6,0.2,3.8,0.7c0.7,0.3,1.6,0.3,2.3-0.1c0.5-0.3,1-0.6,1.5-0.9
	c0.2-0.1,0.4-0.2,0.6-0.2c0.5,0.1,1.1-0.2,1.3-0.7c0.2-0.3,0.3-0.6,0.5-1C41.7,24,41.9,23,41.9,22L41.9,22z"/>
<rect x="1.3" y="1.9" width="43" height="43"/>
<rect x="50.9" y="3.5" width="58.6" height="22.9"/>
<rect x="50.9" y="30.8" width="57.7" height="15.8"/>
</svg>
